<?xml version="1.0" encoding="utf-8" standalone="no"?>
<!DOCTYPE svg PUBLIC "-//W3C//DTD SVG 1.1//EN"
  "http://www.w3.org/Graphics/SVG/1.1/DTD/svg11.dtd">
<!-- Created with matplotlib (https://matplotlib.org/) -->
<svg height="345.6pt" version="1.1" viewBox="0 0 460.8 345.6" width="460.8pt" xmlns="http://www.w3.org/2000/svg" xmlns:xlink="http://www.w3.org/1999/xlink">
 <metadata>
  <rdf:RDF xmlns:cc="http://creativecommons.org/ns#" xmlns:dc="http://purl.org/dc/elements/1.1/" xmlns:rdf="http://www.w3.org/1999/02/22-rdf-syntax-ns#">
   <cc:Work>
    <dc:type rdf:resource="http://purl.org/dc/dcmitype/StillImage"/>
    <dc:date>2024-01-21T08:27:15.732273</dc:date>
    <dc:format>image/svg+xml</dc:format>
    <dc:creator>
     <cc:Agent>
      <dc:title>Matplotlib v3.3.4, https://matplotlib.org/</dc:title>
     </cc:Agent>
    </dc:creator>
   </cc:Work>
  </rdf:RDF>
 </metadata>
 <defs>
  <style type="text/css">*{stroke-linecap:butt;stroke-linejoin:round;}</style>
 </defs>
 <g id="figure_1">
  <g id="patch_1">
   <path d="M 0 345.6 
L 460.8 345.6 
L 460.8 0 
L 0 0 
z
" style="fill:#ffffff;"/>
  </g>
  <g id="axes_1">
   <g id="patch_2">
    <path d="M 57.6 307.584 
L 414.72 307.584 
L 414.72 41.472 
L 57.6 41.472 
z
" style="fill:#e5e5e5;"/>
   </g>
   <g id="matplotlib.axis_1">
    <g id="xtick_1">
     <g id="line2d_1">
      <path clip-path="url(#p08cbe92cc4)" d="M 73.832727 307.584 
L 73.832727 41.472 
" style="fill:none;stroke:#ffffff;stroke-linecap:square;stroke-width:0.8;"/>
     </g>
     <g id="line2d_2">
      <defs>
       <path d="M 0 0 
L 0 3.5 
" id="m747122e122" style="stroke:#555555;stroke-width:0.8;"/>
      </defs>
      <g>
       <use style="fill:#555555;stroke:#555555;stroke-width:0.8;" x="73.832727" xlink:href="#m747122e122" y="307.584"/>
      </g>
     </g>
     <g id="text_1">
      <!-- 0 -->
      <g style="fill:#555555;" transform="translate(70.651477 322.182437)scale(0.1 -0.1)">
       <defs>
        <path d="M 31.78125 66.40625 
Q 24.171875 66.40625 20.328125 58.90625 
Q 16.5 51.421875 16.5 36.375 
Q 16.5 21.390625 20.328125 13.890625 
Q 24.171875 6.390625 31.78125 6.390625 
Q 39.453125 6.390625 43.28125 13.890625 
Q 47.125 21.390625 47.125 36.375 
Q 47.125 51.421875 43.28125 58.90625 
Q 39.453125 66.40625 31.78125 66.40625 
z
M 31.78125 74.21875 
Q 44.046875 74.21875 50.515625 64.515625 
Q 56.984375 54.828125 56.984375 36.375 
Q 56.984375 17.96875 50.515625 8.265625 
Q 44.046875 -1.421875 31.78125 -1.421875 
Q 19.53125 -1.421875 13.0625 8.265625 
Q 6.59375 17.96875 6.59375 36.375 
Q 6.59375 54.828125 13.0625 64.515625 
Q 19.53125 74.21875 31.78125 74.21875 
z
" id="DejaVuSans-48"/>
       </defs>
       <use xlink:href="#DejaVuSans-48"/>
      </g>
     </g>
    </g>
    <g id="xtick_2">
     <g id="line2d_3">
      <path clip-path="url(#p08cbe92cc4)" d="M 116.382471 307.584 
L 116.382471 41.472 
" style="fill:none;stroke:#ffffff;stroke-linecap:square;stroke-width:0.8;"/>
     </g>
     <g id="line2d_4">
      <g>
       <use style="fill:#555555;stroke:#555555;stroke-width:0.8;" x="116.382471" xlink:href="#m747122e122" y="307.584"/>
      </g>
     </g>
     <g id="text_2">
      <!-- 200 -->
      <g style="fill:#555555;" transform="translate(106.838721 322.182437)scale(0.1 -0.1)">
       <defs>
        <path d="M 19.1875 8.296875 
L 53.609375 8.296875 
L 53.609375 0 
L 7.328125 0 
L 7.328125 8.296875 
Q 12.9375 14.109375 22.625 23.890625 
Q 32.328125 33.6875 34.8125 36.53125 
Q 39.546875 41.84375 41.421875 45.53125 
Q 43.3125 49.21875 43.3125 52.78125 
Q 43.3125 58.59375 39.234375 62.25 
Q 35.15625 65.921875 28.609375 65.921875 
Q 23.96875 65.921875 18.8125 64.3125 
Q 13.671875 62.703125 7.8125 59.421875 
L 7.8125 69.390625 
Q 13.765625 71.78125 18.9375 73 
Q 24.125 74.21875 28.421875 74.21875 
Q 39.75 74.21875 46.484375 68.546875 
Q 53.21875 62.890625 53.21875 53.421875 
Q 53.21875 48.921875 51.53125 44.890625 
Q 49.859375 40.875 45.40625 35.40625 
Q 44.1875 33.984375 37.640625 27.21875 
Q 31.109375 20.453125 19.1875 8.296875 
z
" id="DejaVuSans-50"/>
       </defs>
       <use xlink:href="#DejaVuSans-50"/>
       <use x="63.623047" xlink:href="#DejaVuSans-48"/>
       <use x="127.246094" xlink:href="#DejaVuSans-48"/>
      </g>
     </g>
    </g>
    <g id="xtick_3">
     <g id="line2d_5">
      <path clip-path="url(#p08cbe92cc4)" d="M 158.932215 307.584 
L 158.932215 41.472 
" style="fill:none;stroke:#ffffff;stroke-linecap:square;stroke-width:0.8;"/>
     </g>
     <g id="line2d_6">
      <g>
       <use style="fill:#555555;stroke:#555555;stroke-width:0.8;" x="158.932215" xlink:href="#m747122e122" y="307.584"/>
      </g>
     </g>
     <g id="text_3">
      <!-- 400 -->
      <g style="fill:#555555;" transform="translate(149.388465 322.182437)scale(0.1 -0.1)">
       <defs>
        <path d="M 37.796875 64.3125 
L 12.890625 25.390625 
L 37.796875 25.390625 
z
M 35.203125 72.90625 
L 47.609375 72.90625 
L 47.609375 25.390625 
L 58.015625 25.390625 
L 58.015625 17.1875 
L 47.609375 17.1875 
L 47.609375 0 
L 37.796875 0 
L 37.796875 17.1875 
L 4.890625 17.1875 
L 4.890625 26.703125 
z
" id="DejaVuSans-52"/>
       </defs>
       <use xlink:href="#DejaVuSans-52"/>
       <use x="63.623047" xlink:href="#DejaVuSans-48"/>
       <use x="127.246094" xlink:href="#DejaVuSans-48"/>
      </g>
     </g>
    </g>
    <g id="xtick_4">
     <g id="line2d_7">
      <path clip-path="url(#p08cbe92cc4)" d="M 201.481959 307.584 
L 201.481959 41.472 
" style="fill:none;stroke:#ffffff;stroke-linecap:square;stroke-width:0.8;"/>
     </g>
     <g id="line2d_8">
      <g>
       <use style="fill:#555555;stroke:#555555;stroke-width:0.8;" x="201.481959" xlink:href="#m747122e122" y="307.584"/>
      </g>
     </g>
     <g id="text_4">
      <!-- 600 -->
      <g style="fill:#555555;" transform="translate(191.938209 322.182437)scale(0.1 -0.1)">
       <defs>
        <path d="M 33.015625 40.375 
Q 26.375 40.375 22.484375 35.828125 
Q 18.609375 31.296875 18.609375 23.390625 
Q 18.609375 15.53125 22.484375 10.953125 
Q 26.375 6.390625 33.015625 6.390625 
Q 39.65625 6.390625 43.53125 10.953125 
Q 47.40625 15.53125 47.40625 23.390625 
Q 47.40625 31.296875 43.53125 35.828125 
Q 39.65625 40.375 33.015625 40.375 
z
M 52.59375 71.296875 
L 52.59375 62.3125 
Q 48.875 64.0625 45.09375 64.984375 
Q 41.3125 65.921875 37.59375 65.921875 
Q 27.828125 65.921875 22.671875 59.328125 
Q 17.53125 52.734375 16.796875 39.40625 
Q 19.671875 43.65625 24.015625 45.921875 
Q 28.375 48.1875 33.59375 48.1875 
Q 44.578125 48.1875 50.953125 41.515625 
Q 57.328125 34.859375 57.328125 23.390625 
Q 57.328125 12.15625 50.6875 5.359375 
Q 44.046875 -1.421875 33.015625 -1.421875 
Q 20.359375 -1.421875 13.671875 8.265625 
Q 6.984375 17.96875 6.984375 36.375 
Q 6.984375 53.65625 15.1875 63.9375 
Q 23.390625 74.21875 37.203125 74.21875 
Q 40.921875 74.21875 44.703125 73.484375 
Q 48.484375 72.75 52.59375 71.296875 
z
" id="DejaVuSans-54"/>
       </defs>
       <use xlink:href="#DejaVuSans-54"/>
       <use x="63.623047" xlink:href="#DejaVuSans-48"/>
       <use x="127.246094" xlink:href="#DejaVuSans-48"/>
      </g>
     </g>
    </g>
    <g id="xtick_5">
     <g id="line2d_9">
      <path clip-path="url(#p08cbe92cc4)" d="M 244.031703 307.584 
L 244.031703 41.472 
" style="fill:none;stroke:#ffffff;stroke-linecap:square;stroke-width:0.8;"/>
     </g>
     <g id="line2d_10">
      <g>
       <use style="fill:#555555;stroke:#555555;stroke-width:0.8;" x="244.031703" xlink:href="#m747122e122" y="307.584"/>
      </g>
     </g>
     <g id="text_5">
      <!-- 800 -->
      <g style="fill:#555555;" transform="translate(234.487953 322.182437)scale(0.1 -0.1)">
       <defs>
        <path d="M 31.78125 34.625 
Q 24.75 34.625 20.71875 30.859375 
Q 16.703125 27.09375 16.703125 20.515625 
Q 16.703125 13.921875 20.71875 10.15625 
Q 24.75 6.390625 31.78125 6.390625 
Q 38.8125 6.390625 42.859375 10.171875 
Q 46.921875 13.96875 46.921875 20.515625 
Q 46.921875 27.09375 42.890625 30.859375 
Q 38.875 34.625 31.78125 34.625 
z
M 21.921875 38.8125 
Q 15.578125 40.375 12.03125 44.71875 
Q 8.5 49.078125 8.5 55.328125 
Q 8.5 64.0625 14.71875 69.140625 
Q 20.953125 74.21875 31.78125 74.21875 
Q 42.671875 74.21875 48.875 69.140625 
Q 55.078125 64.0625 55.078125 55.328125 
Q 55.078125 49.078125 51.53125 44.71875 
Q 48 40.375 41.703125 38.8125 
Q 48.828125 37.15625 52.796875 32.3125 
Q 56.78125 27.484375 56.78125 20.515625 
Q 56.78125 9.90625 50.3125 4.234375 
Q 43.84375 -1.421875 31.78125 -1.421875 
Q 19.734375 -1.421875 13.25 4.234375 
Q 6.78125 9.90625 6.78125 20.515625 
Q 6.78125 27.484375 10.78125 32.3125 
Q 14.796875 37.15625 21.921875 38.8125 
z
M 18.3125 54.390625 
Q 18.3125 48.734375 21.84375 45.5625 
Q 25.390625 42.390625 31.78125 42.390625 
Q 38.140625 42.390625 41.71875 45.5625 
Q 45.3125 48.734375 45.3125 54.390625 
Q 45.3125 60.0625 41.71875 63.234375 
Q 38.140625 66.40625 31.78125 66.40625 
Q 25.390625 66.40625 21.84375 63.234375 
Q 18.3125 60.0625 18.3125 54.390625 
z
" id="DejaVuSans-56"/>
       </defs>
       <use xlink:href="#DejaVuSans-56"/>
       <use x="63.623047" xlink:href="#DejaVuSans-48"/>
       <use x="127.246094" xlink:href="#DejaVuSans-48"/>
      </g>
     </g>
    </g>
    <g id="xtick_6">
     <g id="line2d_11">
      <path clip-path="url(#p08cbe92cc4)" d="M 286.581446 307.584 
L 286.581446 41.472 
" style="fill:none;stroke:#ffffff;stroke-linecap:square;stroke-width:0.8;"/>
     </g>
     <g id="line2d_12">
      <g>
       <use style="fill:#555555;stroke:#555555;stroke-width:0.8;" x="286.581446" xlink:href="#m747122e122" y="307.584"/>
      </g>
     </g>
     <g id="text_6">
      <!-- 1000 -->
      <g style="fill:#555555;" transform="translate(273.856446 322.182437)scale(0.1 -0.1)">
       <defs>
        <path d="M 12.40625 8.296875 
L 28.515625 8.296875 
L 28.515625 63.921875 
L 10.984375 60.40625 
L 10.984375 69.390625 
L 28.421875 72.90625 
L 38.28125 72.90625 
L 38.28125 8.296875 
L 54.390625 8.296875 
L 54.390625 0 
L 12.40625 0 
z
" id="DejaVuSans-49"/>
       </defs>
       <use xlink:href="#DejaVuSans-49"/>
       <use x="63.623047" xlink:href="#DejaVuSans-48"/>
       <use x="127.246094" xlink:href="#DejaVuSans-48"/>
       <use x="190.869141" xlink:href="#DejaVuSans-48"/>
      </g>
     </g>
    </g>
    <g id="xtick_7">
     <g id="line2d_13">
      <path clip-path="url(#p08cbe92cc4)" d="M 329.13119 307.584 
L 329.13119 41.472 
" style="fill:none;stroke:#ffffff;stroke-linecap:square;stroke-width:0.8;"/>
     </g>
     <g id="line2d_14">
      <g>
       <use style="fill:#555555;stroke:#555555;stroke-width:0.8;" x="329.13119" xlink:href="#m747122e122" y="307.584"/>
      </g>
     </g>
     <g id="text_7">
      <!-- 1200 -->
      <g style="fill:#555555;" transform="translate(316.40619 322.182437)scale(0.1 -0.1)">
       <use xlink:href="#DejaVuSans-49"/>
       <use x="63.623047" xlink:href="#DejaVuSans-50"/>
       <use x="127.246094" xlink:href="#DejaVuSans-48"/>
       <use x="190.869141" xlink:href="#DejaVuSans-48"/>
      </g>
     </g>
    </g>
    <g id="xtick_8">
     <g id="line2d_15">
      <path clip-path="url(#p08cbe92cc4)" d="M 371.680934 307.584 
L 371.680934 41.472 
" style="fill:none;stroke:#ffffff;stroke-linecap:square;stroke-width:0.8;"/>
     </g>
     <g id="line2d_16">
      <g>
       <use style="fill:#555555;stroke:#555555;stroke-width:0.8;" x="371.680934" xlink:href="#m747122e122" y="307.584"/>
      </g>
     </g>
     <g id="text_8">
      <!-- 1400 -->
      <g style="fill:#555555;" transform="translate(358.955934 322.182437)scale(0.1 -0.1)">
       <use xlink:href="#DejaVuSans-49"/>
       <use x="63.623047" xlink:href="#DejaVuSans-52"/>
       <use x="127.246094" xlink:href="#DejaVuSans-48"/>
       <use x="190.869141" xlink:href="#DejaVuSans-48"/>
      </g>
     </g>
    </g>
    <g id="xtick_9">
     <g id="line2d_17">
      <path clip-path="url(#p08cbe92cc4)" d="M 414.230678 307.584 
L 414.230678 41.472 
" style="fill:none;stroke:#ffffff;stroke-linecap:square;stroke-width:0.8;"/>
     </g>
     <g id="line2d_18">
      <g>
       <use style="fill:#555555;stroke:#555555;stroke-width:0.8;" x="414.230678" xlink:href="#m747122e122" y="307.584"/>
      </g>
     </g>
     <g id="text_9">
      <!-- 1600 -->
      <g style="fill:#555555;" transform="translate(401.505678 322.182437)scale(0.1 -0.1)">
       <use xlink:href="#DejaVuSans-49"/>
       <use x="63.623047" xlink:href="#DejaVuSans-54"/>
       <use x="127.246094" xlink:href="#DejaVuSans-48"/>
       <use x="190.869141" xlink:href="#DejaVuSans-48"/>
      </g>
     </g>
    </g>
    <g id="text_10">
     <!-- Time (s) -->
     <g style="fill:#555555;" transform="translate(211.765312 337.38025)scale(0.12 -0.12)">
      <defs>
       <path d="M -0.296875 72.90625 
L 61.375 72.90625 
L 61.375 64.59375 
L 35.5 64.59375 
L 35.5 0 
L 25.59375 0 
L 25.59375 64.59375 
L -0.296875 64.59375 
z
" id="DejaVuSans-84"/>
       <path d="M 9.421875 54.6875 
L 18.40625 54.6875 
L 18.40625 0 
L 9.421875 0 
z
M 9.421875 75.984375 
L 18.40625 75.984375 
L 18.40625 64.59375 
L 9.421875 64.59375 
z
" id="DejaVuSans-105"/>
       <path d="M 52 44.1875 
Q 55.375 50.25 60.0625 53.125 
Q 64.75 56 71.09375 56 
Q 79.640625 56 84.28125 50.015625 
Q 88.921875 44.046875 88.921875 33.015625 
L 88.921875 0 
L 79.890625 0 
L 79.890625 32.71875 
Q 79.890625 40.578125 77.09375 44.375 
Q 74.3125 48.1875 68.609375 48.1875 
Q 61.625 48.1875 57.5625 43.546875 
Q 53.515625 38.921875 53.515625 30.90625 
L 53.515625 0 
L 44.484375 0 
L 44.484375 32.71875 
Q 44.484375 40.625 41.703125 44.40625 
Q 38.921875 48.1875 33.109375 48.1875 
Q 26.21875 48.1875 22.15625 43.53125 
Q 18.109375 38.875 18.109375 30.90625 
L 18.109375 0 
L 9.078125 0 
L 9.078125 54.6875 
L 18.109375 54.6875 
L 18.109375 46.1875 
Q 21.1875 51.21875 25.484375 53.609375 
Q 29.78125 56 35.6875 56 
Q 41.65625 56 45.828125 52.96875 
Q 50 49.953125 52 44.1875 
z
" id="DejaVuSans-109"/>
       <path d="M 56.203125 29.59375 
L 56.203125 25.203125 
L 14.890625 25.203125 
Q 15.484375 15.921875 20.484375 11.0625 
Q 25.484375 6.203125 34.421875 6.203125 
Q 39.59375 6.203125 44.453125 7.46875 
Q 49.3125 8.734375 54.109375 11.28125 
L 54.109375 2.78125 
Q 49.265625 0.734375 44.1875 -0.34375 
Q 39.109375 -1.421875 33.890625 -1.421875 
Q 20.796875 -1.421875 13.15625 6.1875 
Q 5.515625 13.8125 5.515625 26.8125 
Q 5.515625 40.234375 12.765625 48.109375 
Q 20.015625 56 32.328125 56 
Q 43.359375 56 49.78125 48.890625 
Q 56.203125 41.796875 56.203125 29.59375 
z
M 47.21875 32.234375 
Q 47.125 39.59375 43.09375 43.984375 
Q 39.0625 48.390625 32.421875 48.390625 
Q 24.90625 48.390625 20.390625 44.140625 
Q 15.875 39.890625 15.1875 32.171875 
z
" id="DejaVuSans-101"/>
       <path id="DejaVuSans-32"/>
       <path d="M 31 75.875 
Q 24.46875 64.65625 21.28125 53.65625 
Q 18.109375 42.671875 18.109375 31.390625 
Q 18.109375 20.125 21.3125 9.0625 
Q 24.515625 -2 31 -13.1875 
L 23.1875 -13.1875 
Q 15.875 -1.703125 12.234375 9.375 
Q 8.59375 20.453125 8.59375 31.390625 
Q 8.59375 42.28125 12.203125 53.3125 
Q 15.828125 64.359375 23.1875 75.875 
z
" id="DejaVuSans-40"/>
       <path d="M 44.28125 53.078125 
L 44.28125 44.578125 
Q 40.484375 46.53125 36.375 47.5 
Q 32.28125 48.484375 27.875 48.484375 
Q 21.1875 48.484375 17.84375 46.4375 
Q 14.5 44.390625 14.5 40.28125 
Q 14.5 37.15625 16.890625 35.375 
Q 19.28125 33.59375 26.515625 31.984375 
L 29.59375 31.296875 
Q 39.15625 29.25 43.1875 25.515625 
Q 47.21875 21.78125 47.21875 15.09375 
Q 47.21875 7.46875 41.1875 3.015625 
Q 35.15625 -1.421875 24.609375 -1.421875 
Q 20.21875 -1.421875 15.453125 -0.5625 
Q 10.6875 0.296875 5.421875 2 
L 5.421875 11.28125 
Q 10.40625 8.6875 15.234375 7.390625 
Q 20.0625 6.109375 24.8125 6.109375 
Q 31.15625 6.109375 34.5625 8.28125 
Q 37.984375 10.453125 37.984375 14.40625 
Q 37.984375 18.0625 35.515625 20.015625 
Q 33.0625 21.96875 24.703125 23.78125 
L 21.578125 24.515625 
Q 13.234375 26.265625 9.515625 29.90625 
Q 5.8125 33.546875 5.8125 39.890625 
Q 5.8125 47.609375 11.28125 51.796875 
Q 16.75 56 26.8125 56 
Q 31.78125 56 36.171875 55.265625 
Q 40.578125 54.546875 44.28125 53.078125 
z
" id="DejaVuSans-115"/>
       <path d="M 8.015625 75.875 
L 15.828125 75.875 
Q 23.140625 64.359375 26.78125 53.3125 
Q 30.421875 42.28125 30.421875 31.390625 
Q 30.421875 20.453125 26.78125 9.375 
Q 23.140625 -1.703125 15.828125 -13.1875 
L 8.015625 -13.1875 
Q 14.5 -2 17.703125 9.0625 
Q 20.90625 20.125 20.90625 31.390625 
Q 20.90625 42.671875 17.703125 53.65625 
Q 14.5 64.65625 8.015625 75.875 
z
" id="DejaVuSans-41"/>
      </defs>
      <use xlink:href="#DejaVuSans-84"/>
      <use x="57.958984" xlink:href="#DejaVuSans-105"/>
      <use x="85.742188" xlink:href="#DejaVuSans-109"/>
      <use x="183.154297" xlink:href="#DejaVuSans-101"/>
      <use x="244.677734" xlink:href="#DejaVuSans-32"/>
      <use x="276.464844" xlink:href="#DejaVuSans-40"/>
      <use x="315.478516" xlink:href="#DejaVuSans-115"/>
      <use x="367.578125" xlink:href="#DejaVuSans-41"/>
     </g>
    </g>
   </g>
   <g id="matplotlib.axis_2">
    <g id="ytick_1">
     <g id="line2d_19">
      <path clip-path="url(#p08cbe92cc4)" d="M 57.6 295.517953 
L 414.72 295.517953 
" style="fill:none;stroke:#ffffff;stroke-linecap:square;stroke-width:0.8;"/>
     </g>
     <g id="line2d_20">
      <defs>
       <path d="M 0 0 
L -3.5 0 
" id="m8ed4a9c158" style="stroke:#555555;stroke-width:0.8;"/>
      </defs>
      <g>
       <use style="fill:#555555;stroke:#555555;stroke-width:0.8;" x="57.6" xlink:href="#m8ed4a9c158" y="295.517953"/>
      </g>
     </g>
     <g id="text_11">
      <!-- 0 -->
      <g style="fill:#555555;" transform="translate(44.2375 299.317171)scale(0.1 -0.1)">
       <use xlink:href="#DejaVuSans-48"/>
      </g>
     </g>
    </g>
    <g id="ytick_2">
     <g id="line2d_21">
      <path clip-path="url(#p08cbe92cc4)" d="M 57.6 249.149179 
L 414.72 249.149179 
" style="fill:none;stroke:#ffffff;stroke-linecap:square;stroke-width:0.8;"/>
     </g>
     <g id="line2d_22">
      <g>
       <use style="fill:#555555;stroke:#555555;stroke-width:0.8;" x="57.6" xlink:href="#m8ed4a9c158" y="249.149179"/>
      </g>
     </g>
     <g id="text_12">
      <!-- 10 -->
      <g style="fill:#555555;" transform="translate(37.875 252.948398)scale(0.1 -0.1)">
       <use xlink:href="#DejaVuSans-49"/>
       <use x="63.623047" xlink:href="#DejaVuSans-48"/>
      </g>
     </g>
    </g>
    <g id="ytick_3">
     <g id="line2d_23">
      <path clip-path="url(#p08cbe92cc4)" d="M 57.6 202.780406 
L 414.72 202.780406 
" style="fill:none;stroke:#ffffff;stroke-linecap:square;stroke-width:0.8;"/>
     </g>
     <g id="line2d_24">
      <g>
       <use style="fill:#555555;stroke:#555555;stroke-width:0.8;" x="57.6" xlink:href="#m8ed4a9c158" y="202.780406"/>
      </g>
     </g>
     <g id="text_13">
      <!-- 20 -->
      <g style="fill:#555555;" transform="translate(37.875 206.579625)scale(0.1 -0.1)">
       <use xlink:href="#DejaVuSans-50"/>
       <use x="63.623047" xlink:href="#DejaVuSans-48"/>
      </g>
     </g>
    </g>
    <g id="ytick_4">
     <g id="line2d_25">
      <path clip-path="url(#p08cbe92cc4)" d="M 57.6 156.411633 
L 414.72 156.411633 
" style="fill:none;stroke:#ffffff;stroke-linecap:square;stroke-width:0.8;"/>
     </g>
     <g id="line2d_26">
      <g>
       <use style="fill:#555555;stroke:#555555;stroke-width:0.8;" x="57.6" xlink:href="#m8ed4a9c158" y="156.411633"/>
      </g>
     </g>
     <g id="text_14">
      <!-- 30 -->
      <g style="fill:#555555;" transform="translate(37.875 160.210852)scale(0.1 -0.1)">
       <defs>
        <path d="M 40.578125 39.3125 
Q 47.65625 37.796875 51.625 33 
Q 55.609375 28.21875 55.609375 21.1875 
Q 55.609375 10.40625 48.1875 4.484375 
Q 40.765625 -1.421875 27.09375 -1.421875 
Q 22.515625 -1.421875 17.65625 -0.515625 
Q 12.796875 0.390625 7.625 2.203125 
L 7.625 11.71875 
Q 11.71875 9.328125 16.59375 8.109375 
Q 21.484375 6.890625 26.8125 6.890625 
Q 36.078125 6.890625 40.9375 10.546875 
Q 45.796875 14.203125 45.796875 21.1875 
Q 45.796875 27.640625 41.28125 31.265625 
Q 36.765625 34.90625 28.71875 34.90625 
L 20.21875 34.90625 
L 20.21875 43.015625 
L 29.109375 43.015625 
Q 36.375 43.015625 40.234375 45.921875 
Q 44.09375 48.828125 44.09375 54.296875 
Q 44.09375 59.90625 40.109375 62.90625 
Q 36.140625 65.921875 28.71875 65.921875 
Q 24.65625 65.921875 20.015625 65.03125 
Q 15.375 64.15625 9.8125 62.3125 
L 9.8125 71.09375 
Q 15.4375 72.65625 20.34375 73.4375 
Q 25.25 74.21875 29.59375 74.21875 
Q 40.828125 74.21875 47.359375 69.109375 
Q 53.90625 64.015625 53.90625 55.328125 
Q 53.90625 49.265625 50.4375 45.09375 
Q 46.96875 40.921875 40.578125 39.3125 
z
" id="DejaVuSans-51"/>
       </defs>
       <use xlink:href="#DejaVuSans-51"/>
       <use x="63.623047" xlink:href="#DejaVuSans-48"/>
      </g>
     </g>
    </g>
    <g id="ytick_5">
     <g id="line2d_27">
      <path clip-path="url(#p08cbe92cc4)" d="M 57.6 110.04286 
L 414.72 110.04286 
" style="fill:none;stroke:#ffffff;stroke-linecap:square;stroke-width:0.8;"/>
     </g>
     <g id="line2d_28">
      <g>
       <use style="fill:#555555;stroke:#555555;stroke-width:0.8;" x="57.6" xlink:href="#m8ed4a9c158" y="110.04286"/>
      </g>
     </g>
     <g id="text_15">
      <!-- 40 -->
      <g style="fill:#555555;" transform="translate(37.875 113.842079)scale(0.1 -0.1)">
       <use xlink:href="#DejaVuSans-52"/>
       <use x="63.623047" xlink:href="#DejaVuSans-48"/>
      </g>
     </g>
    </g>
    <g id="ytick_6">
     <g id="line2d_29">
      <path clip-path="url(#p08cbe92cc4)" d="M 57.6 63.674087 
L 414.72 63.674087 
" style="fill:none;stroke:#ffffff;stroke-linecap:square;stroke-width:0.8;"/>
     </g>
     <g id="line2d_30">
      <g>
       <use style="fill:#555555;stroke:#555555;stroke-width:0.8;" x="57.6" xlink:href="#m8ed4a9c158" y="63.674087"/>
      </g>
     </g>
     <g id="text_16">
      <!-- 50 -->
      <g style="fill:#555555;" transform="translate(37.875 67.473306)scale(0.1 -0.1)">
       <defs>
        <path d="M 10.796875 72.90625 
L 49.515625 72.90625 
L 49.515625 64.59375 
L 19.828125 64.59375 
L 19.828125 46.734375 
Q 21.96875 47.46875 24.109375 47.828125 
Q 26.265625 48.1875 28.421875 48.1875 
Q 40.625 48.1875 47.75 41.5 
Q 54.890625 34.8125 54.890625 23.390625 
Q 54.890625 11.625 47.5625 5.09375 
Q 40.234375 -1.421875 26.90625 -1.421875 
Q 22.3125 -1.421875 17.546875 -0.640625 
Q 12.796875 0.140625 7.71875 1.703125 
L 7.71875 11.625 
Q 12.109375 9.234375 16.796875 8.0625 
Q 21.484375 6.890625 26.703125 6.890625 
Q 35.15625 6.890625 40.078125 11.328125 
Q 45.015625 15.765625 45.015625 23.390625 
Q 45.015625 31 40.078125 35.4375 
Q 35.15625 39.890625 26.703125 39.890625 
Q 22.75 39.890625 18.8125 39.015625 
Q 14.890625 38.140625 10.796875 36.28125 
z
" id="DejaVuSans-53"/>
       </defs>
       <use xlink:href="#DejaVuSans-53"/>
       <use x="63.623047" xlink:href="#DejaVuSans-48"/>
      </g>
     </g>
    </g>
    <g id="text_17">
     <!-- Total average delay -->
     <g style="fill:#555555;" transform="translate(31.379375 233.313937)rotate(-90)scale(0.12 -0.12)">
      <defs>
       <path d="M 30.609375 48.390625 
Q 23.390625 48.390625 19.1875 42.75 
Q 14.984375 37.109375 14.984375 27.296875 
Q 14.984375 17.484375 19.15625 11.84375 
Q 23.34375 6.203125 30.609375 6.203125 
Q 37.796875 6.203125 41.984375 11.859375 
Q 46.1875 17.53125 46.1875 27.296875 
Q 46.1875 37.015625 41.984375 42.703125 
Q 37.796875 48.390625 30.609375 48.390625 
z
M 30.609375 56 
Q 42.328125 56 49.015625 48.375 
Q 55.71875 40.765625 55.71875 27.296875 
Q 55.71875 13.875 49.015625 6.21875 
Q 42.328125 -1.421875 30.609375 -1.421875 
Q 18.84375 -1.421875 12.171875 6.21875 
Q 5.515625 13.875 5.515625 27.296875 
Q 5.515625 40.765625 12.171875 48.375 
Q 18.84375 56 30.609375 56 
z
" id="DejaVuSans-111"/>
       <path d="M 18.3125 70.21875 
L 18.3125 54.6875 
L 36.8125 54.6875 
L 36.8125 47.703125 
L 18.3125 47.703125 
L 18.3125 18.015625 
Q 18.3125 11.328125 20.140625 9.421875 
Q 21.96875 7.515625 27.59375 7.515625 
L 36.8125 7.515625 
L 36.8125 0 
L 27.59375 0 
Q 17.1875 0 13.234375 3.875 
Q 9.28125 7.765625 9.28125 18.015625 
L 9.28125 47.703125 
L 2.6875 47.703125 
L 2.6875 54.6875 
L 9.28125 54.6875 
L 9.28125 70.21875 
z
" id="DejaVuSans-116"/>
       <path d="M 34.28125 27.484375 
Q 23.390625 27.484375 19.1875 25 
Q 14.984375 22.515625 14.984375 16.5 
Q 14.984375 11.71875 18.140625 8.90625 
Q 21.296875 6.109375 26.703125 6.109375 
Q 34.1875 6.109375 38.703125 11.40625 
Q 43.21875 16.703125 43.21875 25.484375 
L 43.21875 27.484375 
z
M 52.203125 31.203125 
L 52.203125 0 
L 43.21875 0 
L 43.21875 8.296875 
Q 40.140625 3.328125 35.546875 0.953125 
Q 30.953125 -1.421875 24.3125 -1.421875 
Q 15.921875 -1.421875 10.953125 3.296875 
Q 6 8.015625 6 15.921875 
Q 6 25.140625 12.171875 29.828125 
Q 18.359375 34.515625 30.609375 34.515625 
L 43.21875 34.515625 
L 43.21875 35.40625 
Q 43.21875 41.609375 39.140625 45 
Q 35.0625 48.390625 27.6875 48.390625 
Q 23 48.390625 18.546875 47.265625 
Q 14.109375 46.140625 10.015625 43.890625 
L 10.015625 52.203125 
Q 14.9375 54.109375 19.578125 55.046875 
Q 24.21875 56 28.609375 56 
Q 40.484375 56 46.34375 49.84375 
Q 52.203125 43.703125 52.203125 31.203125 
z
" id="DejaVuSans-97"/>
       <path d="M 9.421875 75.984375 
L 18.40625 75.984375 
L 18.40625 0 
L 9.421875 0 
z
" id="DejaVuSans-108"/>
       <path d="M 2.984375 54.6875 
L 12.5 54.6875 
L 29.59375 8.796875 
L 46.6875 54.6875 
L 56.203125 54.6875 
L 35.6875 0 
L 23.484375 0 
z
" id="DejaVuSans-118"/>
       <path d="M 41.109375 46.296875 
Q 39.59375 47.171875 37.8125 47.578125 
Q 36.03125 48 33.890625 48 
Q 26.265625 48 22.1875 43.046875 
Q 18.109375 38.09375 18.109375 28.8125 
L 18.109375 0 
L 9.078125 0 
L 9.078125 54.6875 
L 18.109375 54.6875 
L 18.109375 46.1875 
Q 20.953125 51.171875 25.484375 53.578125 
Q 30.03125 56 36.53125 56 
Q 37.453125 56 38.578125 55.875 
Q 39.703125 55.765625 41.0625 55.515625 
z
" id="DejaVuSans-114"/>
       <path d="M 45.40625 27.984375 
Q 45.40625 37.75 41.375 43.109375 
Q 37.359375 48.484375 30.078125 48.484375 
Q 22.859375 48.484375 18.828125 43.109375 
Q 14.796875 37.75 14.796875 27.984375 
Q 14.796875 18.265625 18.828125 12.890625 
Q 22.859375 7.515625 30.078125 7.515625 
Q 37.359375 7.515625 41.375 12.890625 
Q 45.40625 18.265625 45.40625 27.984375 
z
M 54.390625 6.78125 
Q 54.390625 -7.171875 48.1875 -13.984375 
Q 42 -20.796875 29.203125 -20.796875 
Q 24.46875 -20.796875 20.265625 -20.09375 
Q 16.0625 -19.390625 12.109375 -17.921875 
L 12.109375 -9.1875 
Q 16.0625 -11.328125 19.921875 -12.34375 
Q 23.78125 -13.375 27.78125 -13.375 
Q 36.625 -13.375 41.015625 -8.765625 
Q 45.40625 -4.15625 45.40625 5.171875 
L 45.40625 9.625 
Q 42.625 4.78125 38.28125 2.390625 
Q 33.9375 0 27.875 0 
Q 17.828125 0 11.671875 7.65625 
Q 5.515625 15.328125 5.515625 27.984375 
Q 5.515625 40.671875 11.671875 48.328125 
Q 17.828125 56 27.875 56 
Q 33.9375 56 38.28125 53.609375 
Q 42.625 51.21875 45.40625 46.390625 
L 45.40625 54.6875 
L 54.390625 54.6875 
z
" id="DejaVuSans-103"/>
       <path d="M 45.40625 46.390625 
L 45.40625 75.984375 
L 54.390625 75.984375 
L 54.390625 0 
L 45.40625 0 
L 45.40625 8.203125 
Q 42.578125 3.328125 38.25 0.953125 
Q 33.9375 -1.421875 27.875 -1.421875 
Q 17.96875 -1.421875 11.734375 6.484375 
Q 5.515625 14.40625 5.515625 27.296875 
Q 5.515625 40.1875 11.734375 48.09375 
Q 17.96875 56 27.875 56 
Q 33.9375 56 38.25 53.625 
Q 42.578125 51.265625 45.40625 46.390625 
z
M 14.796875 27.296875 
Q 14.796875 17.390625 18.875 11.75 
Q 22.953125 6.109375 30.078125 6.109375 
Q 37.203125 6.109375 41.296875 11.75 
Q 45.40625 17.390625 45.40625 27.296875 
Q 45.40625 37.203125 41.296875 42.84375 
Q 37.203125 48.484375 30.078125 48.484375 
Q 22.953125 48.484375 18.875 42.84375 
Q 14.796875 37.203125 14.796875 27.296875 
z
" id="DejaVuSans-100"/>
       <path d="M 32.171875 -5.078125 
Q 28.375 -14.84375 24.75 -17.8125 
Q 21.140625 -20.796875 15.09375 -20.796875 
L 7.90625 -20.796875 
L 7.90625 -13.28125 
L 13.1875 -13.28125 
Q 16.890625 -13.28125 18.9375 -11.515625 
Q 21 -9.765625 23.484375 -3.21875 
L 25.09375 0.875 
L 2.984375 54.6875 
L 12.5 54.6875 
L 29.59375 11.921875 
L 46.6875 54.6875 
L 56.203125 54.6875 
z
" id="DejaVuSans-121"/>
      </defs>
      <use xlink:href="#DejaVuSans-84"/>
      <use x="44.083984" xlink:href="#DejaVuSans-111"/>
      <use x="105.265625" xlink:href="#DejaVuSans-116"/>
      <use x="144.474609" xlink:href="#DejaVuSans-97"/>
      <use x="205.753906" xlink:href="#DejaVuSans-108"/>
      <use x="233.537109" xlink:href="#DejaVuSans-32"/>
      <use x="265.324219" xlink:href="#DejaVuSans-97"/>
      <use x="326.603516" xlink:href="#DejaVuSans-118"/>
      <use x="385.783203" xlink:href="#DejaVuSans-101"/>
      <use x="447.306641" xlink:href="#DejaVuSans-114"/>
      <use x="488.419922" xlink:href="#DejaVuSans-97"/>
      <use x="549.699219" xlink:href="#DejaVuSans-103"/>
      <use x="613.175781" xlink:href="#DejaVuSans-101"/>
      <use x="674.699219" xlink:href="#DejaVuSans-32"/>
      <use x="706.486328" xlink:href="#DejaVuSans-100"/>
      <use x="769.962891" xlink:href="#DejaVuSans-101"/>
      <use x="831.486328" xlink:href="#DejaVuSans-108"/>
      <use x="859.269531" xlink:href="#DejaVuSans-97"/>
      <use x="920.548828" xlink:href="#DejaVuSans-121"/>
     </g>
    </g>
   </g>
   <g id="line2d_31">
    <path clip-path="url(#p08cbe92cc4)" d="M 73.832727 293.663202 
L 74.470973 288.727532 
L 74.683722 289.114216 
L 75.10922 285.853375 
L 75.321968 285.535317 
L 75.534717 283.399053 
L 75.747466 283.250776 
L 75.960214 281.798979 
L 76.172963 281.806896 
L 76.385712 281.384948 
L 76.598461 280.117186 
L 77.023958 282.342651 
L 77.449455 278.592951 
L 77.662204 278.972479 
L 77.874953 278.886163 
L 78.087702 278.358697 
L 78.513199 276.101368 
L 78.938697 276.329833 
L 79.789691 275.124691 
L 80.00244 274.84708 
L 80.215189 275.985072 
L 80.640686 272.708621 
L 80.853435 272.559812 
L 81.066184 272.891031 
L 81.278932 272.742426 
L 81.491681 271.668682 
L 81.70443 272.019534 
L 82.129927 271.774996 
L 82.555425 270.522446 
L 82.768173 270.795483 
L 82.980922 269.789569 
L 83.193671 270.185585 
L 83.40642 268.66546 
L 83.619168 268.859168 
L 83.831917 266.64225 
L 84.044666 266.289586 
L 84.257415 267.723086 
L 84.470163 265.306059 
L 84.682912 264.771401 
L 84.895661 263.771625 
L 85.108409 263.681435 
L 85.321158 263.988463 
L 85.533907 261.501676 
L 85.746656 260.919775 
L 85.959404 259.449854 
L 86.172153 259.398432 
L 86.384902 260.203965 
L 86.59765 257.715066 
L 86.810399 257.54241 
L 87.023148 255.907048 
L 87.235897 255.668881 
L 87.448645 254.842938 
L 87.661394 253.030139 
L 88.086891 252.053169 
L 88.29964 252.806042 
L 88.512389 249.723516 
L 88.725138 249.935858 
L 88.937886 249.600565 
L 89.363384 247.686831 
L 89.576132 245.199504 
L 89.788881 245.974044 
L 90.00163 246.208369 
L 90.214379 245.424217 
L 90.427127 245.929042 
L 90.639876 242.638112 
L 90.852625 242.680766 
L 91.490871 240.395792 
L 91.70362 235.686963 
L 92.341866 233.387591 
L 92.554615 231.469677 
L 92.767363 226.459859 
L 93.405609 221.195157 
L 93.618358 219.370098 
L 94.043856 214.556145 
L 94.469353 211.155945 
L 94.89485 205.522445 
L 95.107599 203.638979 
L 95.533097 202.008333 
L 95.745845 198.928054 
L 95.958594 198.223897 
L 96.384092 195.048069 
L 96.59684 194.583489 
L 96.809589 191.061534 
L 97.235086 191.966086 
L 97.447835 191.19865 
L 97.660584 190.889966 
L 97.873333 188.720179 
L 98.086081 189.32134 
L 98.511579 188.545851 
L 98.724327 188.561079 
L 98.937076 187.620599 
L 99.149825 188.501384 
L 99.362574 188.384686 
L 99.575322 187.725206 
L 99.788071 188.037752 
L 100.00082 187.451363 
L 100.213568 186.3887 
L 100.426317 186.356467 
L 100.639066 185.464667 
L 101.064563 185.336594 
L 101.277312 184.68893 
L 101.490061 184.923922 
L 101.702809 183.730762 
L 101.915558 183.209425 
L 102.128307 181.53859 
L 102.341056 177.199323 
L 102.553804 175.69484 
L 102.979302 171.292253 
L 103.192051 169.870943 
L 103.404799 166.231942 
L 103.617548 165.503408 
L 104.255794 160.521522 
L 104.468543 157.715999 
L 104.681292 157.894948 
L 105.106789 156.483244 
L 105.532286 152.598773 
L 105.745035 152.705819 
L 106.170533 150.866711 
L 106.383281 148.092761 
L 106.59603 147.29304 
L 106.808779 147.02095 
L 107.234276 145.496975 
L 107.447025 142.907051 
L 107.659774 143.143542 
L 107.872522 143.207933 
L 108.085271 142.582309 
L 108.510768 138.198298 
L 108.723517 138.777079 
L 108.936266 137.851458 
L 109.361763 134.427302 
L 109.574512 132.475492 
L 109.787261 132.489236 
L 110.212758 128.682972 
L 110.425507 128.768563 
L 111.063753 126.836994 
L 111.701999 122.322021 
L 112.552994 113.045998 
L 112.765743 112.023985 
L 112.978492 109.63108 
L 113.19124 109.110435 
L 113.616738 102.878917 
L 113.829486 103.255844 
L 114.042235 102.028568 
L 114.254984 102.686488 
L 114.467733 100.321931 
L 114.680481 99.593462 
L 115.105979 101.556672 
L 115.318728 101.636395 
L 115.531476 101.884117 
L 115.744225 101.32889 
L 115.956974 102.646442 
L 116.169722 103.109037 
L 116.382471 103.238286 
L 116.59522 103.947766 
L 116.807969 103.97116 
L 117.233466 104.655937 
L 117.446215 104.014482 
L 117.658963 104.721427 
L 117.871712 104.850346 
L 118.084461 104.827711 
L 118.29721 105.688572 
L 118.509958 104.066081 
L 118.722707 103.790901 
L 118.935456 103.946456 
L 119.360953 105.034908 
L 119.573702 103.311171 
L 120.211948 104.197701 
L 120.424697 103.82888 
L 120.637445 102.16074 
L 121.062943 103.204588 
L 121.275692 102.722047 
L 121.701189 97.022776 
L 122.126687 92.42919 
L 122.339435 90.66085 
L 122.552184 86.64007 
L 122.764933 84.976675 
L 123.19043 80.274856 
L 123.403179 78.735013 
L 123.615928 76.08676 
L 123.828676 75.684422 
L 124.254174 73.876975 
L 124.466922 74.108821 
L 124.679671 72.635359 
L 125.105169 75.505303 
L 125.317917 74.607618 
L 125.530666 75.559233 
L 125.743415 75.199538 
L 125.956163 75.798927 
L 126.168912 77.010688 
L 126.381661 75.763064 
L 127.019907 78.980315 
L 127.232656 78.85803 
L 127.445405 76.178969 
L 128.296399 78.518084 
L 128.721897 75.476379 
L 128.934646 76.207602 
L 129.147394 76.535211 
L 129.360143 76.369458 
L 129.572892 75.028682 
L 129.78564 75.200718 
L 130.211138 76.565039 
L 130.423887 76.379887 
L 130.636635 75.008935 
L 130.849384 74.88838 
L 131.274881 73.49555 
L 131.48763 71.563001 
L 131.700379 70.918174 
L 132.125876 69.078091 
L 132.338625 69.226691 
L 132.551374 65.598169 
L 132.764122 65.060782 
L 132.976871 64.066675 
L 133.402369 64.227701 
L 133.615117 61.343733 
L 133.827866 61.43595 
L 134.040615 59.693061 
L 134.466112 61.591743 
L 134.678861 60.285662 
L 134.89161 56.780168 
L 135.317107 58.939657 
L 135.529856 58.957267 
L 135.742605 59.282318 
L 135.955353 58.720593 
L 136.380851 61.002261 
L 136.806348 60.496405 
L 137.019097 59.621072 
L 137.231846 60.268199 
L 137.444594 61.595169 
L 137.657343 61.643248 
L 138.08284 62.720869 
L 139.146584 67.340083 
L 139.997579 72.59456 
L 140.210328 73.31353 
L 140.635825 72.019527 
L 141.274071 68.5476 
L 143.401558 55.705451 
L 143.827056 54.42401 
L 144.465302 53.568 
L 145.103548 53.665018 
L 145.316297 53.949622 
L 145.529046 54.039348 
L 145.954543 54.745678 
L 146.380041 56.041413 
L 146.805538 58.413408 
L 147.443784 63.097809 
L 148.294779 68.451443 
L 149.78402 76.660226 
L 150.209517 75.756248 
L 150.847764 74.621161 
L 151.911507 72.148943 
L 152.124256 72.088713 
L 152.337005 72.214492 
L 152.549753 72.593344 
L 152.975251 74.297942 
L 153.613497 78.610621 
L 154.677241 88.651343 
L 156.591979 106.764492 
L 157.230225 110.981539 
L 159.570461 122.038881 
L 161.4852 127.834859 
L 162.336194 131.33003 
L 164.038184 138.305814 
L 164.889179 140.858493 
L 165.527425 142.3605 
L 165.952923 143.666509 
L 167.229415 147.804175 
L 167.654912 148.667376 
L 168.293159 149.676995 
L 169.144153 151.12217 
L 169.569651 151.302474 
L 170.420646 153.14341 
L 171.271641 155.600942 
L 172.335384 159.320282 
L 173.399128 164.76324 
L 174.250123 170.628438 
L 176.37761 185.388279 
L 177.015856 188.459752 
L 178.930595 194.207 
L 179.143343 194.30454 
L 179.781589 195.609185 
L 180.207087 197.017896 
L 180.845333 199.756503 
L 183.398318 210.757184 
L 184.036564 212.889632 
L 184.887559 215.286861 
L 185.313056 216.204748 
L 186.164051 217.33773 
L 186.802297 217.982677 
L 187.227795 218.302271 
L 188.078789 219.791391 
L 189.993528 225.025842 
L 191.482769 227.823887 
L 192.546513 229.149181 
L 193.184759 229.509027 
L 193.823005 230.054188 
L 194.674 230.103442 
L 196.801487 229.247306 
L 197.439733 229.555433 
L 197.865231 229.820082 
L 198.290728 229.718493 
L 198.716225 230.061947 
L 200.205466 231.695525 
L 202.332954 232.605261 
L 203.183949 232.771382 
L 206.375179 232.616789 
L 206.800677 232.96034 
L 207.651672 234.220352 
L 208.715415 236.366562 
L 209.56641 237.239281 
L 210.417405 237.967436 
L 211.481149 238.460412 
L 212.119395 238.623932 
L 212.757641 238.555309 
L 214.459631 237.968084 
L 215.523374 237.853022 
L 216.16162 237.705267 
L 216.587118 237.865987 
L 217.225364 238.157978 
L 217.650861 238.18321 
L 218.927354 238.836495 
L 219.5656 239.357112 
L 220.629344 240.275964 
L 221.26759 240.597189 
L 222.331333 240.662482 
L 223.182328 240.792743 
L 224.884318 241.051164 
L 225.522564 241.103737 
L 226.16081 241.732619 
L 226.799056 242.703985 
L 228.501046 245.852588 
L 228.926544 246.403811 
L 229.990287 247.273842 
L 230.628533 247.45794 
L 231.054031 247.392131 
L 232.117774 247.111391 
L 233.181518 247.163709 
L 234.032513 247.130203 
L 235.309005 247.03797 
L 236.16 247.451051 
L 236.798246 247.335946 
L 237.436492 247.747733 
L 238.712985 248.917097 
L 239.351231 249.23219 
L 241.904215 249.482131 
L 243.818954 249.490207 
L 244.882697 249.533824 
L 245.308195 249.856371 
L 245.733692 250.537733 
L 246.15919 251.555688 
L 246.797436 253.260263 
L 247.435682 254.217302 
L 248.073928 254.911871 
L 248.712174 255.280545 
L 249.137672 255.310803 
L 250.201415 255.248394 
L 252.116154 255.414043 
L 253.818144 255.152103 
L 254.881887 254.791534 
L 255.520133 254.796924 
L 255.732882 254.691073 
L 256.15838 254.950645 
L 257.009374 255.948959 
L 258.073118 256.878334 
L 259.562359 257.702478 
L 260.413354 257.931094 
L 262.328092 258.067746 
L 263.179087 257.917109 
L 263.817333 257.763885 
L 264.242831 258.110286 
L 264.881077 259.075597 
L 265.519323 260.59036 
L 265.944821 261.569313 
L 266.583067 262.507218 
L 267.008564 262.801595 
L 269.561549 263.663237 
L 271.05079 263.705133 
L 271.689036 263.660625 
L 272.327282 263.413169 
L 273.603775 262.717761 
L 274.242021 263.055314 
L 274.454769 263.238239 
L 274.880267 263.235338 
L 275.518513 263.749272 
L 276.369508 264.490804 
L 277.646 265.574922 
L 278.496995 265.989946 
L 279.773487 266.247818 
L 280.624482 266.27581 
L 281.475477 266.073199 
L 282.326472 266.004672 
L 282.964718 266.011485 
L 283.390216 266.367418 
L 284.028462 267.333035 
L 285.517703 270.012718 
L 287.219693 271.490818 
L 287.857939 271.756365 
L 289.34718 271.932534 
L 289.985426 271.852252 
L 290.836421 271.458485 
L 291.474667 271.168379 
L 292.751159 271.051371 
L 293.389405 271.448846 
L 293.814903 271.46574 
L 294.027652 271.395874 
L 295.091395 272.470431 
L 296.155139 273.46036 
L 297.006134 273.956008 
L 298.069877 274.317336 
L 298.920872 274.338847 
L 300.410113 274.119429 
L 301.899354 274.109116 
L 302.324852 274.20481 
L 302.750349 274.494616 
L 303.388595 275.233249 
L 304.23959 276.509484 
L 305.090585 277.356247 
L 305.94158 277.819566 
L 307.430821 278.16419 
L 308.069067 278.102528 
L 308.920062 277.732084 
L 309.558308 277.488712 
L 311.685795 277.393235 
L 312.111293 277.566845 
L 314.877026 279.041161 
L 316.366267 279.349355 
L 317.004513 279.308354 
L 318.068257 279.115368 
L 321.472236 279.218294 
L 322.110483 279.637159 
L 324.025221 281.616557 
L 325.301713 282.20646 
L 325.939959 282.298347 
L 326.578206 282.153306 
L 327.429201 281.788154 
L 328.492944 281.799305 
L 331.045929 281.896208 
L 331.471426 282.165597 
L 332.322421 282.750496 
L 334.23716 283.476584 
L 335.088154 283.469502 
L 335.939149 283.326381 
L 340.83237 283.546526 
L 341.470616 284.065364 
L 342.747108 285.487157 
L 343.598103 286.044743 
L 344.236349 286.180731 
L 344.874595 286.055248 
L 345.512842 285.933969 
L 349.342319 286.05195 
L 349.980565 286.029731 
L 350.618811 286.355347 
L 351.257057 286.867875 
L 351.895303 287.176848 
L 352.959047 287.463932 
L 354.02279 287.431735 
L 355.937529 287.586055 
L 359.979755 287.798639 
L 360.830749 288.512249 
L 361.894493 289.615799 
L 362.532739 289.809927 
L 363.596483 289.85808 
L 364.872975 290.135052 
L 366.787714 290.253068 
L 369.553447 290.408798 
L 370.829939 291.173943 
L 372.31918 291.423749 
L 373.808421 291.653081 
L 376.148657 291.738622 
L 378.701642 291.724684 
L 379.339888 292.046238 
L 381.467375 293.453962 
L 382.743868 293.992624 
L 384.02036 294.237961 
L 386.147847 294.329438 
L 388.700832 294.405694 
L 391.466565 295.259315 
L 393.381303 295.426089 
L 397.636278 295.463557 
L 398.487273 295.488 
L 398.487273 295.488 
" style="fill:none;stroke:#ff0000;stroke-linecap:square;stroke-width:2;"/>
   </g>
   <g id="patch_3">
    <path d="M 57.6 307.584 
L 57.6 41.472 
" style="fill:none;stroke:#ffffff;stroke-linecap:square;stroke-linejoin:miter;"/>
   </g>
   <g id="patch_4">
    <path d="M 414.72 307.584 
L 414.72 41.472 
" style="fill:none;stroke:#ffffff;stroke-linecap:square;stroke-linejoin:miter;"/>
   </g>
   <g id="patch_5">
    <path d="M 57.6 307.584 
L 414.72 307.584 
" style="fill:none;stroke:#ffffff;stroke-linecap:square;stroke-linejoin:miter;"/>
   </g>
   <g id="patch_6">
    <path d="M 57.6 41.472 
L 414.72 41.472 
" style="fill:none;stroke:#ffffff;stroke-linecap:square;stroke-linejoin:miter;"/>
   </g>
  </g>
 </g>
 <defs>
  <clipPath id="p08cbe92cc4">
   <rect height="266.112" width="357.12" x="57.6" y="41.472"/>
  </clipPath>
 </defs>
</svg>
